<svg xmlns="http://www.w3.org/2000/svg" xmlns:xlink="http://www.w3.org/1999/xlink" width="119" height="111" viewBox="0 0 119 111"><defs><path id="rstwa" d="M554.758 2296.556v-48.912h48.912v48.912z"/><path id="rstwb" d="M603.67 2235.638h-48.814l24.407-34.586 24.407 34.586z"/><path id="rstwc" d="M617.01 2223.188c0-13.507 10.949-24.456 24.456-24.456 13.506 0 24.456 10.949 24.456 24.456 0 13.506-10.95 24.456-24.456 24.456-13.507 0-24.456-10.95-24.456-24.456z"/><path id="rstwg" d="M667.112 2256.143c.926-.926 2.777-.926 3.703 0 .926.926.926 2.777 0 3.703l-48.142 48.142c-.926.926-2.777.926-3.703 0-.926-.926-.926-2.777 0-3.703z"/><path id="rstwh" d="M672.29 2304.285c.925.925.925 2.777 0 3.703-.926.926-2.778.926-3.704 0l-48.141-48.142c-.926-.926-.926-2.777 0-3.703.926-.926 2.777-.926 3.703 0z"/><clipPath id="rstwd"><use fill="#fff" xlink:href="#rstwa"/></clipPath><clipPath id="rstwe"><use fill="#fff" xlink:href="#rstwb"/></clipPath><clipPath id="rstwf"><use fill="#fff" xlink:href="#rstwc"/></clipPath></defs><g><g transform="translate(-554 -2198)"><g><use fill="#fff" fill-opacity="0" stroke="#312c35" stroke-linecap="round" stroke-linejoin="round" stroke-miterlimit="50" stroke-width="12" clip-path="url(&quot;#rstwd&quot;)" xlink:href="#rstwa"/></g><g><use fill="#fff" fill-opacity="0" stroke="#312c35" stroke-linecap="round" stroke-linejoin="round" stroke-miterlimit="50" stroke-width="12" clip-path="url(&quot;#rstwe&quot;)" xlink:href="#rstwb"/></g><g><use fill="#fff" xlink:href="#rstwc"/><use fill="#fff" fill-opacity="0" stroke="#312c35" stroke-miterlimit="50" stroke-width="12" clip-path="url(&quot;#rstwf&quot;)" xlink:href="#rstwc"/></g><g/><g><use fill="#312c35" xlink:href="#rstwg"/></g><g><use fill="#312c35" xlink:href="#rstwh"/></g></g></g></svg>